<svg width="96" height="96" viewBox="0 0 96 96" fill="none" xmlns="http://www.w3.org/2000/svg">
<path d="M30 67.5C37.4558 67.5 43.5 61.4558 43.5 54C43.5 46.5442 37.4558 40.5 30 40.5C22.5442 40.5 16.5 46.5442 16.5 54C16.5 61.4558 22.5442 67.5 30 67.5Z" stroke="#BCCA01" stroke-width="7.525" stroke-linecap="round" stroke-linejoin="round"/>
<path d="M66 37.5C73.4558 37.5 79.5 31.4558 79.5 24C79.5 16.5442 73.4558 10.5 66 10.5C58.5442 10.5 52.5 16.5442 52.5 24C52.5 31.4558 58.5442 37.5 66 37.5Z" stroke="#BCCA01" stroke-width="7.525" stroke-linecap="round" stroke-linejoin="round"/>
<path d="M46.5 55.5C46.5 49.5 51 37.5 66 37.5C81 37.5 85.5 49.5 85.5 55.5M10.5 85.5C10.5 79.5 15 67.5 30 67.5C45 67.5 49.5 79.5 49.5 85.5" stroke="#4FC5D5" stroke-width="7.525" stroke-linecap="round" stroke-linejoin="round"/>
</svg>
