<svg width="96" height="96" viewBox="0 0 96 96" fill="none" xmlns="http://www.w3.org/2000/svg">
<path d="M38.1088 66.1401L39 65.1597V60.325L24.3984 29.5H17.6016L3 60.325V65.3954L3.79387 66.2569C5.9743 68.6179 8.61928 70.5025 11.5627 71.7926C14.5062 73.0827 17.6846 73.7503 20.8984 73.7536H20.9771C24.2041 73.7393 27.393 73.0552 30.3419 71.7447C33.2909 70.4341 35.9356 68.5257 38.1088 66.1401ZM33 62.8015C29.799 65.9808 25.4683 67.7617 20.9567 67.7539H20.8948C16.4626 67.7761 12.1961 66.0709 9 63.0001V61.675L21 36.3415L33 61.675V62.8015ZM78.3984 29.5H71.6016L57 60.325V65.3954L57.7939 66.2569C59.9743 68.6179 62.6193 70.5025 65.5627 71.7926C68.5062 73.0827 71.6846 73.7503 74.8984 73.7536H74.9771C78.2041 73.7392 81.393 73.0551 84.342 71.7445C87.2909 70.4339 89.9357 68.5254 92.1088 66.1397L93 65.1597V60.325L78.3984 29.5ZM87 62.8015C83.799 65.9808 79.4683 67.7617 74.9567 67.7539H74.8948C70.4626 67.7761 66.1961 66.0709 63 63.0001V61.675L75 36.3415L87 61.675V62.8015Z" fill="#BCCA01"/>
<path d="M51 30.5611C52.6689 30.0595 54.1874 29.1519 55.4196 27.9197C56.6519 26.6874 57.5594 25.1689 58.0611 23.5H78V17.5H58.0611C57.4153 15.3332 56.0872 13.4327 54.2745 12.0813C52.4617 10.73 50.261 10 48 10C45.739 10 43.5383 10.73 41.7255 12.0813C39.9127 13.4327 38.5847 15.3332 37.9389 17.5H18V23.5H37.9389C38.4406 25.1689 39.3481 26.6874 40.5804 27.9197C41.8126 29.1519 43.3311 30.0595 45 30.5611V80.5H25.5V86.5H70.5V80.5H51V30.5611ZM43.5 20.5C43.5 19.61 43.7639 18.74 44.2584 18C44.7529 17.26 45.4557 16.6832 46.2779 16.3426C47.1002 16.002 48.005 15.9129 48.8779 16.0865C49.7508 16.2601 50.5526 16.6887 51.182 17.3181C51.8113 17.9474 52.2399 18.7492 52.4135 19.6221C52.5872 20.4951 52.4981 21.3999 52.1575 22.2221C51.8169 23.0444 51.2401 23.7472 50.5001 24.2417C49.76 24.7361 48.89 25 48 25C46.8065 25 45.6619 24.5259 44.818 23.682C43.9741 22.8381 43.5 21.6935 43.5 20.5Z" fill="#4FC5D5"/>
</svg>
