<svg width="14" height="14" viewBox="0 0 14 14" fill="none" xmlns="http://www.w3.org/2000/svg">
<path d="M7 0C3.13438 0 0 3.13438 0 7C0 10.8656 3.13438 14 7 14C10.8656 14 14 10.8656 14 7C14 3.13438 10.8656 0 7 0ZM7 12.8125C3.79063 12.8125 1.1875 10.2094 1.1875 7C1.1875 3.79063 3.79063 1.1875 7 1.1875C10.2094 1.1875 12.8125 3.79063 12.8125 7C12.8125 10.2094 10.2094 12.8125 7 12.8125Z" fill="#E7E7E7"/>
<path d="M6 4.75C6 4.94891 6.07902 5.13968 6.21967 5.28033C6.36032 5.42098 6.55109 5.5 6.75 5.5C6.94891 5.5 7.13968 5.42098 7.28033 5.28033C7.42098 5.13968 7.5 4.94891 7.5 4.75C7.5 4.55109 7.42098 4.36032 7.28033 4.21967C7.13968 4.07902 6.94891 4 6.75 4C6.55109 4 6.36032 4.07902 6.21967 4.21967C6.07902 4.36032 6 4.55109 6 4.75V4.75ZM7.125 6.5H6.375C6.30625 6.5 6.25 6.55625 6.25 6.625V10.875C6.25 10.9438 6.30625 11 6.375 11H7.125C7.19375 11 7.25 10.9438 7.25 10.875V6.625C7.25 6.55625 7.19375 6.5 7.125 6.5Z" fill="#E7E7E7"/>
</svg>
