<svg width="96" height="96" viewBox="0 0 96 96" fill="none" xmlns="http://www.w3.org/2000/svg">
<path d="M48 12H18C14.6863 12 12 14.6863 12 18V62C12 65.3138 14.6863 68 18 68H78C81.3138 68 84 65.3138 84 62V52" stroke="#4FC5D5" stroke-width="8.13333" stroke-linecap="round" stroke-linejoin="round"/>
<path d="M48 68V84" stroke="#4FC5D5" stroke-width="8.13333" stroke-linecap="round" stroke-linejoin="round"/>
<path d="M28 84H68" stroke="#4FC5D5" stroke-width="8.13333" stroke-linecap="round" stroke-linejoin="round"/>
<path d="M74 32C77.3137 32 80 29.3137 80 26C80 22.6863 77.3137 20 74 20C70.6863 20 68 22.6863 68 26C68 29.3137 70.6863 32 74 32Z" fill="#BCCA01" stroke="#BCCA01" stroke-width="8.13333"/>
<path d="M74 40V32" stroke="#BCCA01" stroke-width="8.13333" stroke-linecap="round" stroke-linejoin="round"/>
<path d="M74 20V12" stroke="#BCCA01" stroke-width="8.13333" stroke-linecap="round" stroke-linejoin="round"/>
<path d="M61.8754 33L68.8036 29" stroke="#BCCA01" stroke-width="8.13333" stroke-linecap="round" stroke-linejoin="round"/>
<path d="M79.1963 23L86.1245 19" stroke="#BCCA01" stroke-width="8.13333" stroke-linecap="round" stroke-linejoin="round"/>
<path d="M61.875 19L68.8032 23" stroke="#BCCA01" stroke-width="8.13333" stroke-linecap="round" stroke-linejoin="round"/>
<path d="M79.1957 29L86.1239 33" stroke="#BCCA01" stroke-width="8.13333" stroke-linecap="round" stroke-linejoin="round"/>
</svg>
