<svg width="12" height="14" viewBox="0 0 12 14" fill="none" xmlns="http://www.w3.org/2000/svg">
<path d="M3 7H9V8H3V7Z" fill="#E7E7E7"/>
<path d="M3 4H9V5H3V4Z" fill="#E7E7E7"/>
<path d="M6 14L2.912 12.3535C2.03167 11.8852 1.29549 11.1859 0.782464 10.3309C0.26944 9.47579 -0.00105653 8.49716 3.10129e-06 7.5V1C0.00026784 0.734865 0.10571 0.480665 0.293189 0.293186C0.480668 0.105707 0.734868 0.000264738 1 0H11C11.2651 0.000264738 11.5193 0.105707 11.7068 0.293186C11.8943 0.480665 11.9997 0.734865 12 1V7.5C12.0011 8.49716 11.7306 9.47579 11.2175 10.3309C10.7045 11.1859 9.96834 11.8852 9.088 12.3535L6 14ZM1 1V7.5C0.999173 8.3159 1.22055 9.11663 1.64038 9.81623C2.06022 10.5158 2.66264 11.0879 3.383 11.471L6 12.8665L8.617 11.4715C9.33744 11.0883 9.93991 10.5162 10.3597 9.81651C10.7796 9.11682 11.0009 8.31599 11 7.5V1H1Z" fill="#E7E7E7"/>
</svg>
