<svg width="96" height="96" viewBox="0 0 96 96" fill="none" xmlns="http://www.w3.org/2000/svg">
<path d="M31.1999 71.9984C30.5634 71.9984 29.953 71.7456 29.5029 71.2955C29.0528 70.8454 28.7999 70.235 28.7999 69.5984V59.9984C28.7999 59.3619 29.0528 58.7515 29.5029 58.3014C29.953 57.8513 30.5634 57.5984 31.1999 57.5984H35.9999C36.6364 57.5984 37.2469 57.8513 37.697 58.3014C38.1471 58.7515 38.3999 59.3619 38.3999 59.9984V69.5984C38.3999 70.235 38.1471 70.8454 37.697 71.2955C37.2469 71.7456 36.6364 71.9984 35.9999 71.9984H31.1999ZM45.5999 71.9984C44.9634 71.9984 44.353 71.7456 43.9029 71.2955C43.4528 70.8454 43.1999 70.235 43.1999 69.5984V50.3984C43.1999 49.7619 43.4528 49.1515 43.9029 48.7014C44.353 48.2513 44.9634 47.9984 45.5999 47.9984H50.3999C51.0364 47.9984 51.6469 48.2513 52.097 48.7014C52.5471 49.1515 52.7999 49.7619 52.7999 50.3984V69.5984C52.7999 70.235 52.5471 70.8454 52.097 71.2955C51.6469 71.7456 51.0364 71.9984 50.3999 71.9984H45.5999ZM59.9999 71.9984C59.3634 71.9984 58.753 71.7456 58.3029 71.2955C57.8528 70.8454 57.5999 70.235 57.5999 69.5984V40.7984C57.5999 40.1619 57.8528 39.5515 58.3029 39.1014C58.753 38.6513 59.3634 38.3984 59.9999 38.3984H64.7999C65.4364 38.3984 66.0469 38.6513 66.497 39.1014C66.9471 39.5515 67.1999 40.1619 67.1999 40.7984V69.5984C67.1999 70.235 66.9471 70.8454 66.497 71.2955C66.0469 71.7456 65.4364 71.9984 64.7999 71.9984H59.9999Z" fill="#BCCA01"/>
<path d="M28.8 14.3984C26.2539 14.3984 23.8121 15.4099 22.0117 17.2102C20.2114 19.0106 19.2 21.4524 19.2 23.9984V81.5984C19.2 84.1445 20.2114 86.5863 22.0117 88.3867C23.8121 90.187 26.2539 91.1984 28.8 91.1984H67.1999C69.746 91.1984 72.1878 90.187 73.9882 88.3867C75.7885 86.5863 76.7999 84.1445 76.7999 81.5984V23.9984C76.7999 21.4524 75.7885 19.0106 73.9882 17.2102C72.1878 15.4099 69.746 14.3984 67.1999 14.3984H28.8ZM28.8 19.1984H67.1999C68.473 19.1984 69.6939 19.7042 70.5941 20.6043C71.4942 21.5045 71.9999 22.7254 71.9999 23.9984V81.5984C71.9999 82.8715 71.4942 84.0924 70.5941 84.9926C69.6939 85.8927 68.473 86.3984 67.1999 86.3984H28.8C27.5269 86.3984 26.306 85.8927 25.4058 84.9926C24.5057 84.0924 24 82.8715 24 81.5984V23.9984C24 22.7254 24.5057 21.5045 25.4058 20.6043C26.306 19.7042 27.5269 19.1984 28.8 19.1984Z" fill="#4FC5D5"/>
</svg>
