<svg width="30" height="30" viewBox="0 0 30 30" fill="none" xmlns="http://www.w3.org/2000/svg">
<circle cx="15" cy="15" r="15" fill="white" fill-opacity="0.2"/>
<path fill-rule="evenodd" clip-rule="evenodd" d="M13.2867 12.978H15.7627V14.2114C16.1193 13.502 17.034 12.8647 18.408 12.8647C21.042 12.8647 21.6673 14.2767 21.6673 16.8674V21.6654H19.0007V17.4574C19.0007 15.982 18.644 15.15 17.736 15.15C16.4767 15.15 15.9533 16.0467 15.9533 17.4567V21.6654H13.2867V12.978V12.978ZM8.71398 21.552H11.3807V12.8647H8.71398V21.552V21.552ZM11.7627 10.032C11.7627 10.2555 11.7184 10.4769 11.6322 10.6831C11.5461 10.8893 11.4198 11.0764 11.2607 11.2334C10.9383 11.5538 10.5019 11.7331 10.0473 11.732C9.59358 11.7317 9.15819 11.5528 8.83532 11.234C8.67679 11.0765 8.55091 10.8892 8.46488 10.683C8.37885 10.4767 8.33437 10.2555 8.33398 10.032C8.33398 9.5807 8.51398 9.1487 8.83598 8.83003C9.15857 8.5108 9.59414 8.33183 10.048 8.33203C10.5027 8.33203 10.9387 8.51136 11.2607 8.83003C11.582 9.1487 11.7627 9.5807 11.7627 10.032Z" fill="#DDDDDD"/>
</svg>
